<svg viewBox="0 0 28.96 23.81"><g transform="translate(127.11 -204.2)"><circle r="11.91" cy="216.11" cx="-113.09" fill="#3f51bf"/><rect ry="1.46" rx=".89" y="207.81" x="-120.67" height="5" width="15.15" fill="#3f51bf" stroke="#fff" stroke-width=".18"/><g style="line-height:1.25;-inkscape-font-specification:'.Apple SD Gothic NeoI Heavy'" aria-label="Syner" font-weight="900" font-size="4.85" font-family=".Apple SD Gothic NeoI" fill="#fff" stroke="#3f51bf" stroke-width=".14"><path style="-inkscape-font-specification:'.Apple SD Gothic NeoI Heavy'" d="M66.54 126c.84 0 1.29-.38 1.29-1.08 0-.66-.32-.88-.9-1l-.24-.04c-.28-.06-.38-.13-.38-.3 0-.19.15-.28.45-.28.36 0 .65.08.87.16v-.66a2.1 2.1 0 00-.96-.17c-.83 0-1.21.4-1.21 1.02 0 .69.32.91.83 1.01l.25.05c.31.06.4.12.4.31 0 .2-.15.3-.5.3-.39 0-.68-.07-.97-.18v.67c.23.12.61.2 1.07.2zM68.74 126.66c.53 0 .79-.15.96-.64l.97-2.58h-.78l-.5 1.36h0l-.47-1.36h-.87l.93 2.3-.04.1c-.06.17-.19.22-.41.22l-.27-.03v.55c.1.04.3.08.48.08zM71 125.94h.82v-1.82c.1-.04.25-.08.39-.08.22 0 .31.07.31.27v1.63h.83v-1.86c0-.5-.28-.68-.74-.68-.32 0-.58.1-.8.26h-.02v-.22h-.8zM74.97 123.94c.24 0 .36.13.36.5h-.75c.03-.39.2-.5.4-.5zm.1 2.05c.45 0 .76-.11.95-.22v-.51c-.19.08-.45.15-.74.15-.43 0-.65-.11-.7-.5h1.55v-.22c0-.82-.32-1.29-1.16-1.29-.75 0-1.23.48-1.23 1.26v.06c0 .82.44 1.27 1.32 1.27zM76.54 125.94h.83v-1.69c.13-.06.32-.11.54-.11l.21.03v-.73a.46.46 0 00-.14-.02.76.76 0 00-.62.32h-.03v-.3h-.8z" transform="matrix(.97878 0 -.32835 1.02168 -142.55 83.04)"/></g><path style="line-height:1.25;-inkscape-font-specification:Impact" d="M-98.3 213.46l-2.72 10.5h-3.04l1.83-7.1-3.05 7.1h-2.15l.5-6.93-1.78 6.92h-3.05l2.72-10.5h4.5q-.04.95-.15 2.24l-.21 2.67 2.06-4.9z" font-weight="400" font-size="53.11" font-family="Impact" fill="#fff" stroke="#3f51bf" stroke-width=".22"/><g style="line-height:1.25"><path d="M633.28 614.75q0 7-.34 9.93-.32 2.9-2.07 5.3-1.72 2.41-4.67 3.7-2.96 1.3-6.89 1.3-3.73 0-6.7-1.21-2.96-1.23-4.77-3.67-1.8-2.44-2.15-5.3-.35-2.88-.35-10.05v-7.94q0-7 .32-9.9.34-2.93 2.06-5.34 1.75-2.4 4.7-3.7 2.96-1.29 6.9-1.29 3.72 0 6.68 1.23 2.98 1.21 4.79 3.65 1.8 2.44 2.15 5.3.34 2.87.34 10.05zm-12.07-15.26q0-3.24-.38-4.13-.34-.92-1.46-.92-.95 0-1.46.75-.49.71-.49 4.3v21.69q0 4.04.32 4.99.34.95 1.54.95 1.24 0 1.58-1.1.35-1.09.35-5.19z" style="-inkscape-font-specification:Impact" font-weight="400" font-family="Impact" transform="matrix(.35325 0 -.07176 .22548 -288.88 80.73)" aria-label="O" font-size="58.75" fill="#fff" stroke="#3f51bf" stroke-width=".88"/></g><path style="line-height:1.25;-inkscape-font-specification:Impact" d="M-115.84 217.78h-4.26l.58-1.82q.25-.8.17-1-.07-.2-.53-.2-.53 0-.75.25-.22.23-.47 1.03l-1.55 4.86q-.24.77-.17 1 .07.23.56.23.48 0 .7-.23.22-.23.5-1.1l.41-1.3h4.27l-.13.4q-.52 1.63-1.1 2.3-.57.68-1.97 1.2-1.39.5-3.2.5-1.87 0-2.94-.43-1.08-.43-1.23-1.2-.15-.76.34-2.3l.97-3.06q.36-1.14.66-1.7.3-.57 1.07-1.1.77-.51 1.93-.81 1.17-.3 2.56-.3 1.88 0 2.96.46 1.08.47 1.24 1.16.17.7-.3 2.16z" font-weight="400" font-size="58.75" font-family="Impact" fill="#fff" stroke="#3f51bf" stroke-width=".25"/></g></svg>
