1.96k → 1001 bytes 49.88%

<svg viewBox="0 0 27.09 23.81"><g transform="translate(-76.41 -77.2)"><circle cx="89.96" cy="89.11" r="11.91" fill="#3f51bf"/><g fill="#fff" stroke="#3f51bf" stroke-width="1.01"><path d="M99.29 83.71c-1.02 0-1.91.11-2.7.32-.5.14-.93.3-1.29.5l.04.05c.3.37.43.78.38 1.21-.06.44-.26 1.2-.61 2.3l-.38 1.17c.32.18.73.4 1.26.66.91.45 1.48.77 1.69.96.2.2.2.6 0 1.22-.09.29-.23.5-.41.65-.18.14-.42.21-.7.21-.29 0-.47-.06-.55-.17-.07-.11-.04-.37.09-.76l.4-1.3h-2.26c-.21.63-.4 1.11-.56 1.43-.21.44-.59.84-1.12 1.21l-.31.2c.2.3.56.55 1.1.77.72.28 1.66.42 2.8.42 1.04 0 2-.12 2.85-.36a4.6 4.6 0 001.87-.9c.4-.37.71-.92.95-1.68.33-1.04.32-1.79-.02-2.25-.35-.47-1.35-1.07-3.02-1.8-.58-.25-.92-.47-1-.65-.1-.18-.08-.44.03-.8.09-.27.22-.47.39-.61.18-.14.4-.2.65-.2.24 0 .39.05.46.15.07.1.05.33-.07.7l-.25.78h3.97l.13-.42c.27-.84.33-1.43.18-1.78-.14-.36-.56-.65-1.27-.88a8.89 8.89 0 00-2.72-.35z" stroke-width=".2850422"/><path d="M436.58 226.31h12.24q4.97 0 7.62.78 2.69.78 4.02 2.25 1.35 1.47 1.81 3.58.5 2.08.5 6.47v4.07q0 4.47-.93 6.52-.92 2.05-3.4 3.15-2.46 1.1-6.44 1.1h-3.27v18.82h-12.15zm12.15 8v11.9l.9.02q1.67 0 2.31-.8.66-.84.66-3.44v-3.84q0-2.4-.75-3.12-.75-.72-3.12-.72z" transform="matrix(.35134 0 -.07216 .2267 -57.06 32.32)"/><path d="M91.64 83.47c-.93 0-1.77.1-2.53.3-.42.1-.8.24-1.15.4.08.04.15.1.2.15.25.22.38.49.39.8.01.32-.09.81-.3 1.47l-.29.93a3.6 3.6 0 01-.8 1.48c-.31.3-.79.54-1.42.71-.32.08-.69.15-1.09.19a15.87 15.87 0 00-.6 2.29c-.06.43.06.84.37 1.2.3.38.78.66 1.42.84a10.1 10.1 0 004.81-.02c.76-.2 1.4-.47 1.92-.84.53-.37.9-.77 1.12-1.21.22-.45.5-1.2.84-2.26l.58-1.82c.35-1.09.55-1.85.6-2.29.06-.43-.06-.84-.37-1.2s-.78-.66-1.43-.84a8.1 8.1 0 00-2.27-.28zm-.55 1.8c.26 0 .41.06.45.2.04.14-.01.45-.17.94l-1.55 4.87c-.2.63-.36 1.02-.5 1.19-.13.16-.35.25-.64.25-.28 0-.44-.08-.47-.22-.03-.14.05-.52.25-1.14l1.57-4.95c.17-.54.34-.87.49-.98a.95.95 0 01.57-.17z" stroke-width=".2850422"/></g></g></svg>
